<svg width="40" height="40" viewBox="0 0 40 40" xmlns="http://www.w3.org/2000/svg">
  <circle cx="20" cy="20" r="20" fill="#24292e"/>
  <path d="M20 2C9.5 2 1 10.5 1 21c0 8.4 5.4 15.5 13 18 1 .2 1.3-.4 1.3-1v-3.5c-5.3 1.1-6.4-2.6-6.4-2.6-1-2.4-2.3-3-2.3-3-1.9-1.3.1-1.3.1-1.3 2.1.2 3.2 2.1 3.2 2.1 1.9 3.2 4.9 2.3 6.1 1.7.2-1.4.7-2.3 1.3-2.8-4.6-.5-9.5-2.3-9.5-10.2 0-2.3.8-4.1 2.1-5.6-.2-.5-.9-2.7.2-5.6 0 0 1.7-.6 5.5 2.1 1.6-.4 3.3-.6 5-.6s3.4.2 5 .6c3.8-2.7 5.5-2.1 5.5-2.1 1.1 2.9.4 5.1.2 5.6 1.3 1.5 2.1 3.3 2.1 5.6 0 8-4.9 9.7-9.6 10.2.8.7 1.4 2 1.4 4v5.9c0 .6.3 1.2 1.3 1C33.6 36.5 39 29.4 39 21 39 10.5 30.5 2 20 2z" fill="white"/>
</svg>